<?xml version="1.0" standalone="no"?>
<!DOCTYPE svg PUBLIC "-//W3C//DTD SVG 20010904//EN"
 "http://www.w3.org/TR/2001/REC-SVG-20010904/DTD/svg10.dtd">
<svg version="1.0" xmlns="http://www.w3.org/2000/svg"
 width="435.000000pt" height="435.000000pt" viewBox="0 0 435.000000 435.000000"
 preserveAspectRatio="xMidYMid meet">

<g transform="translate(0.000000,435.000000) scale(0.100000,-0.100000)"
fill="#000000" stroke="none">
<path d="M2008 3231 c-174 -38 -292 -91 -423 -188 -168 -126 -286 -286 -351
-475 -67 -198 -57 -479 24 -669 l20 -45 143 47 c197 66 598 186 633 190 40 5
56 -21 36 -59 -13 -22 -42 -37 -155 -80 -284 -106 -575 -224 -575 -232 0 -15
79 -106 132 -151 90 -77 151 -117 259 -168 348 -166 771 -137 1088 73 71 47
193 160 229 212 l22 32 -53 21 c-28 11 -131 47 -227 80 -316 107 -585 201
-606 212 -23 12 -54 68 -54 99 0 15 15 27 53 44 72 32 99 64 104 123 9 107
-98 177 -216 143 -76 -21 -121 -103 -87 -155 16 -24 16 -25 -10 -25 -41 0 -84
50 -84 98 0 57 34 101 105 137 53 26 70 30 145 30 73 0 92 -4 137 -27 149 -79
158 -251 18 -350 -24 -17 -43 -33 -41 -35 4 -5 863 -253 885 -256 17 -2 55 86
82 192 24 95 26 298 3 408 -75 364 -362 658 -740 759 -136 36 -366 43 -496 15z
m241 -397 l63 -31 -38 -6 c-64 -11 -101 -40 -121 -96 -10 -28 -20 -51 -24 -51
-3 0 -11 18 -18 40 -14 47 -58 83 -120 100 l-45 12 50 25 c27 14 54 29 61 35
12 9 43 72 57 113 6 16 13 8 39 -45 30 -60 37 -67 96 -96z m261 -90 c0 -26 68
-90 111 -104 l41 -14 -53 -17 c-50 -17 -78 -39 -105 -85 -10 -17 -13 -15 -29
19 -19 41 -49 67 -77 67 -27 0 -21 13 15 35 19 12 42 41 57 72 23 48 40 60 40
27z m315 -969 c34 -11 -59 -13 -615 -13 -563 0 -651 2 -625 13 43 20 1180 20
1240 0z"/>
</g>
</svg>
